<?xml version="1.0" standalone="no"?><!DOCTYPE svg PUBLIC "-//W3C//DTD SVG 1.1//EN" "http://www.w3.org/Graphics/SVG/1.1/DTD/svg11.dtd"><svg t="1734058369674" class="icon" viewBox="0 0 1024 1024" version="1.1" xmlns="http://www.w3.org/2000/svg" p-id="1414" xmlns:xlink="http://www.w3.org/1999/xlink" width="200" height="200"><path d="M940.352 214.4c-13.856 0.448-9.6 4.448-39.392 11.808a605.152 605.152 0 0 0-99.648 18.816c-97.12 40.736-116.608 179.968-204.8 229.824-66.016 37.28-132.576 40.256-192.448 59.008a352 352 0 0 0-118.016 68.352c-27.68 23.84-28.384 44.8-57.312 74.752-30.912 32-122.912 0.544-164.576 49.504 13.44 13.568 19.2 17.376 45.792 13.856-5.472 10.4-37.76 19.2-31.456 34.4 6.656 16 84.736 26.976 155.712-16 33.056-19.968 59.392-48.736 110.88-55.584a853.568 853.568 0 0 1 220.48 16.832 343.616 343.616 0 0 1-52.8 83.936c-5.696 6.144 11.424 6.816 30.976 3.2a308.608 308.608 0 0 0 87.04-31.136c32.608-18.976 37.536-67.648 77.536-78.176a89.6 89.6 0 0 0 120.512 14.944c-32.992-9.344-42.112-79.584-30.976-110.56 10.56-29.312 20.992-76.192 31.616-114.912 11.424-41.6 15.616-94.048 29.44-115.2a272.544 272.544 0 0 1 63.68-60.8A89.344 89.344 0 0 0 960 234.752c-0.192-13.248-7.04-20.64-19.648-20.224z" fill="#002B64" p-id="1415"></path><path d="M92.8 771.904a198.912 198.912 0 0 0 121.888-17.6 1098.208 1098.208 0 0 1 108.8-58.944c59.904-19.2 125.568 0 189.6 3.872a275.712 275.712 0 0 0 46.368-0.704c23.84-14.656 23.36-69.504 46.56-74.528a264.416 264.416 0 0 1-65.216 167.68 186.72 186.72 0 0 0 139.232-106.208 392.288 392.288 0 0 0 22.4-52.16c9.952 7.648 4.32 30.88 9.312 43.456 48-26.688 75.296-87.552 93.472-149.12 20.992-71.264 29.6-143.392 43.168-164.48a179.456 179.456 0 0 1 52.16-46.368 84 84 0 0 0 43.68-59.2c-22.4-2.08-27.712-7.296-31.04-18.624a67.2 67.2 0 0 1-33.344 8.064c-10.144 0.32-21.312 0-34.944 1.248-112.736 11.584-127.072 135.84-199.328 206.304a169.6 169.6 0 0 1-16.96 14.4 355.424 355.424 0 0 1-84.896 43.264c-46.208 17.664-90.144 18.912-133.504 34.144A400 400 0 0 0 320 591.68c-6.4 4.48-12.8 9.056-18.368 13.696a179.84 179.84 0 0 0-35.2 40.8 271.136 271.136 0 0 1-34.528 44.448c-23.968 23.52-113.472 6.848-144.992 28.8a25.6 25.6 0 0 0-8.192 8.832c17.184 7.808 28.8 3.008 48.448 5.216 2.592 18.784-40.8 29.92-34.4 38.56z" fill="#C49A6C" p-id="1416"></path><path d="M807.392 294.912a26.624 26.624 0 0 0 43.456-24.832c-24.8-2.08-39.168 6.336-43.456 24.832zM918.656 262.688a83.008 83.008 0 0 0-12.384 43.04c0 3.904-2.944 6.4-3.008 0.544a84.768 84.768 0 0 1 12.32-44.32c2.816-5.12 4.64-3.008 3.072 0.736zM914.368 259.2a102.4 102.4 0 0 0-19.2 46.56c-0.384 3.872-3.52 6.4-3.04 0.288a104.416 104.416 0 0 1 19.2-47.84c3.392-4.736 4.96-2.464 3.04 0.992zM910.496 254.88a121.12 121.12 0 0 0-28.16 48.992c-0.704 3.808-4.032 5.952-3.2 0a125.696 125.696 0 0 1 28.32-50.24c3.872-4.544 5.216-2.144 3.04 1.248zM907.008 249.92a167.136 167.136 0 0 0-35.872 52.48c-1.248 3.68-4.832 5.344-3.04-0.384A166.176 166.176 0 0 1 904.32 248.32c4.32-4.032 5.344-1.44 2.688 1.632z" fill="#002B64" p-id="1417"></path></svg>