<?xml version="1.0" standalone="no"?><!DOCTYPE svg PUBLIC "-//W3C//DTD SVG 1.1//EN" "http://www.w3.org/Graphics/SVG/1.1/DTD/svg11.dtd"><svg t="1734060062849" class="icon" viewBox="0 0 1024 1024" version="1.1" xmlns="http://www.w3.org/2000/svg" p-id="3506" xmlns:xlink="http://www.w3.org/1999/xlink" width="200" height="200"><path d="M159.488 132.928a22.784 22.784 0 0 0-15.616 6.08 20.032 20.032 0 0 0-6.4 14.592v220.544c0 11.392 9.856 20.672 22.016 20.672h235.008a22.784 22.784 0 0 0 15.552-6.016c4.16-3.904 6.464-9.152 6.464-14.656V153.6a20.032 20.032 0 0 0-6.4-14.592 22.784 22.784 0 0 0-15.616-6.08H159.488z m0-68.928h235.008c12.544 0 24.96 2.304 36.48 6.848 11.648 4.48 22.144 11.072 31.04 19.392 8.832 8.32 15.872 18.176 20.672 29.056 4.8 10.88 7.296 22.528 7.296 34.304v220.544c0 11.776-2.496 23.424-7.296 34.304-4.8 10.88-11.84 20.736-20.672 29.056-8.896 8.32-19.392 14.912-30.976 19.456-11.584 4.48-24 6.784-36.544 6.784H159.488c-12.544 0-24.96-2.304-36.544-6.784a96.128 96.128 0 0 1-30.976-19.456 89.472 89.472 0 0 1-20.672-29.056A84.864 84.864 0 0 1 64 374.144V153.6c0-23.744 10.048-46.528 27.968-63.36 17.92-16.768 42.24-26.24 67.52-26.24z m0 565.12a22.784 22.784 0 0 0-15.616 6.08 20.032 20.032 0 0 0-6.4 14.656V870.4c0 11.392 9.856 20.672 22.016 20.672h235.008a22.784 22.784 0 0 0 15.552-6.08c4.16-3.84 6.464-9.088 6.464-14.592v-220.544a20.032 20.032 0 0 0-6.4-14.656 22.784 22.784 0 0 0-15.616-6.016H159.488z m0-68.864h235.008c12.544 0 24.96 2.304 36.48 6.784 11.648 4.48 22.144 11.136 31.04 19.456 8.832 8.32 15.872 18.176 20.672 29.056 4.8 10.88 7.296 22.528 7.296 34.304V870.4c0 23.744-10.048 46.528-27.968 63.36-17.92 16.768-42.24 26.24-67.52 26.24H159.488c-25.344 0-49.6-9.472-67.52-26.24A86.912 86.912 0 0 1 64 870.4v-220.544c0-23.744 10.048-46.592 27.968-63.36 17.92-16.832 42.24-26.24 67.52-26.24z m470.016-358.4a37.952 37.952 0 0 1-25.984-10.112 33.408 33.408 0 0 1-10.752-24.32c0-9.152 3.84-17.92 10.752-24.384a37.952 37.952 0 0 1 25.984-10.112h293.76c9.728 0 19.072 3.648 25.984 10.112a33.408 33.408 0 0 1 10.752 24.32c0 9.152-3.84 17.92-10.752 24.384a37.952 37.952 0 0 1-25.984 10.112h-293.76z m0 220.544a37.952 37.952 0 0 1-25.984-10.112 33.408 33.408 0 0 1-10.752-24.32c0-9.152 3.84-17.92 10.752-24.384a37.952 37.952 0 0 1 25.984-10.112h293.76c9.728 0 19.072 3.648 25.984 10.112a33.408 33.408 0 0 1 10.752 24.32c0 9.152-3.84 17.92-10.752 24.384a37.952 37.952 0 0 1-25.984 10.112h-293.76z m0 275.712a37.952 37.952 0 0 1-25.984-10.112 33.408 33.408 0 0 1-10.752-24.32c0-9.216 3.84-17.92 10.752-24.448a37.952 37.952 0 0 1 25.984-10.048h293.76c9.728 0 19.072 3.584 25.984 10.048a33.408 33.408 0 0 1 10.752 24.384c0 9.152-3.84 17.92-10.752 24.384a37.952 37.952 0 0 1-25.984 10.112h-293.76z m0 220.544a37.952 37.952 0 0 1-25.984-10.112 33.408 33.408 0 0 1-10.752-24.32c0-9.152 3.84-17.92 10.752-24.384a38.016 38.016 0 0 1 25.984-10.112h293.76c9.728 0 19.072 3.648 25.984 10.112a33.408 33.408 0 0 1 10.752 24.32c0 9.152-3.84 17.92-10.752 24.384a37.952 37.952 0 0 1-25.984 10.112h-293.76z" fill="#bfbfbf" p-id="3507"></path></svg>