<?xml version="1.0" standalone="no"?><!DOCTYPE svg PUBLIC "-//W3C//DTD SVG 1.1//EN" "http://www.w3.org/Graphics/SVG/1.1/DTD/svg11.dtd"><svg t="1742435953987" class="icon" viewBox="0 0 1065 1024" version="1.1" xmlns="http://www.w3.org/2000/svg" p-id="1817" xmlns:xlink="http://www.w3.org/1999/xlink" width="208.0078125" height="200"><path d="M819.2 854.308571l117.028571-257.462857h122.88l-210.651428 415.451429h-70.217143l-216.502857-415.451429h128.731428z" p-id="1818" fill="#8a8a8a"></path><path d="M532.48 977.188571v-35.108571H386.194286v-263.314286h146.285714v-70.217143H386.194286V333.531429h263.314285v175.542857h70.217143v-175.542857h257.462857v175.542857H1053.257143V117.028571c0-64.365714-52.662857-117.028571-117.028572-117.028571H117.028571C52.662857 0 0 52.662857 0 117.028571v789.942858c0 64.365714 52.662857 117.028571 117.028571 117.028571h427.154286c-5.851429-17.554286-11.702857-29.257143-11.702857-46.811429zM76.068571 117.028571c0-23.405714 17.554286-40.96 40.96-40.96h819.2c23.405714 0 40.96 17.554286 40.96 40.96v152.137143H76.068571V117.028571z m245.76 825.051429H117.028571c-23.405714 0-40.96-17.554286-40.96-40.96v-228.205714h239.908572v269.165714z m0-333.531429H76.068571V333.531429h239.908572v275.017142z" p-id="1819" fill="#8a8a8a"></path></svg>